<?xml version="1.0" encoding="UTF-8" standalone="no"?>
<!DOCTYPE svg PUBLIC "-//W3C//DTD SVG 1.1//EN" "http://www.w3.org/Graphics/SVG/1.1/DTD/svg11.dtd">
<svg width="100%" height="100%" viewBox="0 0 32 32" version="1.1" xmlns="http://www.w3.org/2000/svg" xmlns:xlink="http://www.w3.org/1999/xlink" xml:space="preserve" xmlns:serif="http://www.serif.com/" style="fill-rule:evenodd;clip-rule:evenodd;stroke-linecap:round;stroke-linejoin:round;stroke-miterlimit:1.5;">
    <g>
        <g transform="matrix(1.21679,0,0,1.21679,-4.5685,-5.43355)">
            <circle cx="16.904" cy="17.615" r="13.149"/>
        </g>
        <g transform="matrix(1.0471,0,0,1.0471,-0.898497,-2.36959)">
            <path d="M24.861,14.577C24.861,11.4 22.282,8.82 19.104,8.82L13.173,8.82C9.995,8.82 7.415,11.4 7.415,14.577L7.415,20.509C7.415,23.687 9.995,26.266 13.173,26.266L19.104,26.266C22.282,26.266 24.861,23.687 24.861,20.509L24.861,14.577Z" style="stroke:white;stroke-width:1.39px;"/>
        </g>
        <g transform="matrix(1.81123,0,0,1.81123,31.5838,-0.692885)">
            <circle cx="-8.604" cy="9.216" r="2.206" style="stroke:white;stroke-width:0.8px;"/>
        </g>
        <g transform="matrix(2.74421,0,0,2.74421,-34.8754,-16.6113)">
            <circle cx="20.418" cy="10.005" r="0.423" style="fill:white;"/>
        </g>
    </g>
</svg>
