<?xml version="1.0" encoding="UTF-8" standalone="no"?>
<!DOCTYPE svg PUBLIC "-//W3C//DTD SVG 1.1//EN" "http://www.w3.org/Graphics/SVG/1.1/DTD/svg11.dtd">
<svg width="100%" height="100%" viewBox="0 0 32 32" version="1.1" xmlns="http://www.w3.org/2000/svg" xmlns:xlink="http://www.w3.org/1999/xlink" xml:space="preserve" xmlns:serif="http://www.serif.com/" style="fill-rule:evenodd;clip-rule:evenodd;stroke-linejoin:round;stroke-miterlimit:2;">
    <g>
        <g transform="matrix(1.21679,0,0,1.21679,-4.5685,-5.43355)">
            <circle cx="16.904" cy="17.615" r="13.149"/>
            <clipPath id="_clip1">
                <circle cx="16.904" cy="17.615" r="13.149"/>
            </clipPath>
            <g clip-path="url(#_clip1)">
                <g transform="matrix(0.89404,0,0,0.89404,2.59926,3.31019)">
                    <path d="M8.239,19.799L6.399,25.894L12.378,23.709C15.903,25.386 20.254,24.696 23.078,21.706C26.583,17.995 26.416,12.135 22.704,8.63C18.993,5.124 13.134,5.292 9.628,9.003C6.805,11.993 6.364,16.376 8.239,19.799Z"/>
                    <path d="M8.239,19.799L6.399,25.894L12.378,23.709C15.903,25.386 20.254,24.696 23.078,21.706C26.583,17.995 26.416,12.135 22.704,8.63C18.993,5.124 13.134,5.292 9.628,9.003C6.805,11.993 6.364,16.376 8.239,19.799ZM9.52,20.186L9.682,19.649L9.412,19.157C7.808,16.228 8.186,12.479 10.601,9.922C13.599,6.747 18.611,6.604 21.786,9.602C24.96,12.601 25.103,17.613 22.105,20.787C19.69,23.345 15.968,23.935 12.953,22.501L12.446,22.26L8.453,23.719C8.453,23.719 9.52,20.186 9.52,20.186Z" style="fill:white;"/>
                </g>
            </g>
        </g>
        <g transform="matrix(0.269668,0,0,0.269668,-15.252,-66.2663)">
            <path d="M103.3,283.4C103.6,283.4 103.9,283.5 104.1,283.6C104.9,283.9 109.7,288.2 110.6,293.7C110.6,293.7 110.1,296 107.8,299.2C107.8,299.2 108.3,301.5 113.8,307C119.4,312.5 121.7,313 121.7,313C124.9,310.7 127.3,310.2 127.3,310.2C132.9,311.1 137.2,315.9 137.5,316.7C138.6,319.2 134.3,322.7 134.3,322.7C133.3,323.1 132.2,323.3 131,323.3C122.1,323.3 110.3,311.8 109.7,311.2C109.4,310.9 94.3,295.7 98.1,286.8C98.1,286.8 101,283.4 103.3,283.4Z" style="fill:white;"/>
        </g>
    </g>
</svg>
